<svg xmlns="http://www.w3.org/2000/svg" viewBox="0 0 1200 675" width="1200" height="675" role="img" aria-label="Vigilath blog cover">
  <defs>
    <linearGradient id="bg" x1="0" y1="0" x2="1" y2="1">
      <stop offset="0" stop-color="#0a0f1f"/>
      <stop offset="1" stop-color="#141a35"/>
    </linearGradient>
    <radialGradient id="glow" cx="0.62" cy="0.3" r="0.7">
      <stop offset="0" stop-color="#2dd4bf" stop-opacity="0.34"/>
      <stop offset="1" stop-color="#2dd4bf" stop-opacity="0"/>
    </radialGradient>
    <radialGradient id="glow2" cx="0.2" cy="0.85" r="0.6">
      <stop offset="0" stop-color="#38bdf8" stop-opacity="0.22"/>
      <stop offset="1" stop-color="#38bdf8" stop-opacity="0"/>
    </radialGradient>
    <pattern id="dots" width="36" height="36" patternUnits="userSpaceOnUse">
      <circle cx="2" cy="2" r="1.5" fill="#ffffff" opacity="0.06"/>
    </pattern>
  </defs>
  <rect width="1200" height="675" fill="url(#bg)"/>
  <rect width="1200" height="675" fill="url(#dots)"/>
  <rect width="1200" height="675" fill="url(#glow)"/>
  <rect width="1200" height="675" fill="url(#glow2)"/>
  
        <circle cx="760" cy="330" r="150" stroke="#2dd4bf" stroke-width="11" fill="none" stroke-linecap="round" stroke-linejoin="round"/>
        <line x1="610" y1="330" x2="910" y2="330" stroke="#2dd4bf" stroke-width="11" fill="none" stroke-linecap="round" stroke-linejoin="round"/>
        <ellipse cx="760" cy="330" rx="64" ry="150" stroke="#2dd4bf" stroke-width="11" fill="none" stroke-linecap="round" stroke-linejoin="round"/>
        <path d="M 620 272 Q 760 300 900 272" stroke="#38bdf8" stroke-width="11" fill="none" stroke-linecap="round" stroke-linejoin="round"/>
        <path d="M 620 388 Q 760 360 900 388" stroke="#38bdf8" stroke-width="11" fill="none" stroke-linecap="round" stroke-linejoin="round"/>
        <circle cx="910" cy="180" r="20" fill="#38bdf8" stroke="none"/>
        <circle cx="590" cy="210" r="14" fill="#2dd4bf" stroke="none"/>
        
  <!-- 品牌放大镜小标 -->
  <g transform="translate(64,592)">
    <circle cx="16" cy="14" r="15" fill="none" stroke="#2dd4bf" stroke-width="5"/>
    <line x1="27" y1="25" x2="40" y2="38" stroke="#2dd4bf" stroke-width="5" stroke-linecap="round"/>
    <text x="58" y="22" font-family="-apple-system,Segoe UI,Roboto,Helvetica,Arial,sans-serif" font-size="26" font-weight="800" fill="#f8fafc" letter-spacing="3">VIGILATH</text>
  </g>
  <!-- 角标 -->
  <g transform="translate(64,72)">
    <rect x="0" y="0" width="118" height="46" rx="23" fill="#2dd4bf" fill-opacity="0.14" stroke="#2dd4bf" stroke-opacity="0.5" stroke-width="2"/>
    <text x="20" y="31" font-family="-apple-system,PingFang SC,Microsoft YaHei,sans-serif" font-size="24" font-weight="700" fill="#2dd4bf">多引擎</text>
  </g>
</svg>
